<svg width="1025" height="718" fill="none" xmlns="http://www.w3.org/2000/svg"><path d="M293.069 602.2c-12.083 0-24.269-4.25-33.997-12.902L0 359l273.459-243.098c21.095-18.688 53.453-16.896 72.243 4.25 18.791 21.146 16.896 53.504-4.249 72.294L154.112 359l172.954 153.702c21.145 18.791 23.04 51.149 4.249 72.295-10.086 11.417-24.166 17.203-38.246 17.203Zm457.984-.102L1024.51 359 765.44 128.702c-21.146-18.79-53.504-16.896-72.243 4.25-18.791 21.146-16.896 53.504 4.249 72.294L870.4 359 683.059 525.502c-21.145 18.791-23.04 51.149-4.249 72.295C688.896 609.214 702.976 615 717.056 615c12.083 0 24.269-4.25 33.997-12.902Zm-239.514 72.55 102.4-614.4c4.659-27.904-14.182-54.272-42.086-58.931-28.007-4.71-54.323 14.182-58.88 42.086l-102.4 614.4c-4.659 27.904 14.182 54.272 42.086 58.931 2.867.461 5.632.666 8.448.666 24.576 0 46.285-17.766 50.432-42.752Z" fill="#10A6E0"/></svg>
